<mxfile host="Electron" modified="2024-05-19T14:52:45.233Z" agent="Mozilla/5.0 (Windows NT 10.0; Win64; x64) AppleWebKit/537.36 (KHTML, like Gecko) draw.io/24.1.0 Chrome/120.0.6099.109 Electron/28.1.0 Safari/537.36" etag="-zbicLvzuwlISnq6l-oR" version="24.1.0" type="device">
  <diagram name="Sayfa -1" id="0UDZFDJXAAFYewRL3Msv">
    <mxGraphModel dx="3477" dy="866" grid="1" gridSize="10" guides="1" tooltips="1" connect="1" arrows="1" fold="1" page="1" pageScale="1" pageWidth="827" pageHeight="1169" math="0" shadow="0">
      <root>
        <mxCell id="0" />
        <mxCell id="1" parent="0" />
        <mxCell id="vjba6TYArSgT68D6Kl4n-2" style="edgeStyle=orthogonalEdgeStyle;rounded=0;orthogonalLoop=1;jettySize=auto;html=1;exitX=0;exitY=0.25;exitDx=0;exitDy=0;entryX=1;entryY=0.25;entryDx=0;entryDy=0;" edge="1" parent="1" source="riJKTjfAlYIHCEY6nRW2-1" target="riJKTjfAlYIHCEY6nRW2-6">
          <mxGeometry relative="1" as="geometry" />
        </mxCell>
        <mxCell id="riJKTjfAlYIHCEY6nRW2-1" value="&lt;h1&gt;&lt;font style=&quot;font-size: 18px;&quot;&gt;&lt;font style=&quot;&quot;&gt;Şef ve&amp;nbsp;&lt;/font&gt;&lt;span style=&quot;background-color: initial;&quot;&gt;Yazarlar&lt;/span&gt;&lt;/font&gt;&lt;/h1&gt;" style="rounded=0;whiteSpace=wrap;html=1;fillColor=#f8cecc;strokeColor=#b85450;" parent="1" vertex="1">
          <mxGeometry x="-320" y="320" width="200" height="120" as="geometry" />
        </mxCell>
        <mxCell id="vjba6TYArSgT68D6Kl4n-1" style="edgeStyle=orthogonalEdgeStyle;rounded=0;orthogonalLoop=1;jettySize=auto;html=1;exitX=0.5;exitY=1;exitDx=0;exitDy=0;entryX=0.441;entryY=-0.01;entryDx=0;entryDy=0;entryPerimeter=0;" edge="1" parent="1" source="riJKTjfAlYIHCEY6nRW2-2" target="riJKTjfAlYIHCEY6nRW2-6">
          <mxGeometry relative="1" as="geometry" />
        </mxCell>
        <mxCell id="riJKTjfAlYIHCEY6nRW2-2" value="&lt;h1&gt;&lt;font style=&quot;font-size: 18px;&quot;&gt;Kullanıcı&lt;/font&gt;&lt;/h1&gt;" style="rounded=0;whiteSpace=wrap;html=1;fillColor=#f8cecc;strokeColor=#b85450;" parent="1" vertex="1">
          <mxGeometry x="-720" y="80" width="200" height="120" as="geometry" />
        </mxCell>
        <mxCell id="riJKTjfAlYIHCEY6nRW2-4" value="&lt;font style=&quot;font-size: 14px;&quot;&gt;Yemek Tarifi Veritabanı&lt;/font&gt;" style="rounded=1;whiteSpace=wrap;html=1;strokeColor=default;align=center;verticalAlign=middle;fontFamily=Helvetica;fontSize=12;fontColor=default;fillColor=default;arcSize=17;" parent="1" vertex="1">
          <mxGeometry x="-690" y="840" width="160" height="40" as="geometry" />
        </mxCell>
        <mxCell id="vjba6TYArSgT68D6Kl4n-15" style="edgeStyle=orthogonalEdgeStyle;rounded=0;orthogonalLoop=1;jettySize=auto;html=1;exitX=0;exitY=0.5;exitDx=0;exitDy=0;entryX=1;entryY=0.5;entryDx=0;entryDy=0;" edge="1" parent="1" source="riJKTjfAlYIHCEY6nRW2-5" target="riJKTjfAlYIHCEY6nRW2-8">
          <mxGeometry relative="1" as="geometry">
            <mxPoint x="-950" y="859.9411764705883" as="targetPoint" />
          </mxGeometry>
        </mxCell>
        <mxCell id="riJKTjfAlYIHCEY6nRW2-5" value="&lt;font style=&quot;font-size: 14px;&quot;&gt;D4&lt;/font&gt;" style="rounded=1;whiteSpace=wrap;html=1;strokeColor=default;align=center;verticalAlign=middle;fontFamily=Helvetica;fontSize=12;fontColor=default;fillColor=default;" parent="1" vertex="1">
          <mxGeometry x="-730" y="840" width="40" height="40" as="geometry" />
        </mxCell>
        <mxCell id="vjba6TYArSgT68D6Kl4n-5" style="edgeStyle=orthogonalEdgeStyle;rounded=0;orthogonalLoop=1;jettySize=auto;html=1;exitX=0.5;exitY=1;exitDx=0;exitDy=0;entryX=0.5;entryY=0;entryDx=0;entryDy=0;" edge="1" parent="1" source="riJKTjfAlYIHCEY6nRW2-6" target="riJKTjfAlYIHCEY6nRW2-7">
          <mxGeometry relative="1" as="geometry" />
        </mxCell>
        <mxCell id="riJKTjfAlYIHCEY6nRW2-6" value="&lt;p style=&quot;margin: 0px; margin-top: 4px; text-align: center; text-decoration: underline;&quot;&gt;&lt;span style=&quot;font-weight: normal;&quot;&gt;&lt;font style=&quot;font-size: 14px;&quot;&gt;4.1&lt;/font&gt;&lt;/span&gt;&lt;/p&gt;&lt;hr&gt;&lt;p style=&quot;margin: 0px; margin-left: 8px;&quot;&gt;&lt;span style=&quot;font-weight: normal;&quot;&gt;&lt;font size=&quot;3&quot;&gt;Tariflerin&lt;/font&gt;&lt;/span&gt;&lt;/p&gt;&lt;p style=&quot;margin: 0px; margin-left: 8px;&quot;&gt;&lt;span style=&quot;font-weight: normal;&quot;&gt;&lt;font size=&quot;3&quot;&gt;Oluşturulması&lt;/font&gt;&lt;/span&gt;&lt;/p&gt;" style="verticalAlign=middle;align=center;overflow=fill;fontSize=12;fontFamily=Helvetica;html=1;rounded=1;fontStyle=1;strokeWidth=3;fillColor=#dae8fc;strokeColor=#6c8ebf;" parent="1" vertex="1">
          <mxGeometry x="-690" y="320" width="160" height="120" as="geometry" />
        </mxCell>
        <mxCell id="vjba6TYArSgT68D6Kl4n-13" style="edgeStyle=orthogonalEdgeStyle;rounded=0;orthogonalLoop=1;jettySize=auto;html=1;exitX=0.5;exitY=1;exitDx=0;exitDy=0;entryX=0.5;entryY=0;entryDx=0;entryDy=0;" edge="1" parent="1" source="riJKTjfAlYIHCEY6nRW2-7" target="riJKTjfAlYIHCEY6nRW2-4">
          <mxGeometry relative="1" as="geometry" />
        </mxCell>
        <mxCell id="riJKTjfAlYIHCEY6nRW2-7" value="&lt;p style=&quot;margin: 0px; margin-top: 4px; text-align: center; text-decoration: underline;&quot;&gt;&lt;font style=&quot;font-size: 14px; font-weight: normal;&quot;&gt;4.2&lt;/font&gt;&lt;/p&gt;&lt;hr&gt;&lt;p style=&quot;margin: 0px; margin-left: 8px;&quot;&gt;&lt;font size=&quot;3&quot; style=&quot;font-weight: normal;&quot;&gt;Tariflerin&lt;/font&gt;&lt;/p&gt;&lt;p style=&quot;margin: 0px; margin-left: 8px;&quot;&gt;&lt;font style=&quot;font-weight: normal;&quot; size=&quot;3&quot;&gt;Sınıflandırılması&lt;/font&gt;&lt;/p&gt;" style="verticalAlign=middle;align=center;overflow=fill;fontSize=12;fontFamily=Helvetica;html=1;rounded=1;fontStyle=1;strokeWidth=3;fillColor=#dae8fc;strokeColor=#6c8ebf;" parent="1" vertex="1">
          <mxGeometry x="-690" y="585" width="160" height="120" as="geometry" />
        </mxCell>
        <mxCell id="vjba6TYArSgT68D6Kl4n-16" style="edgeStyle=orthogonalEdgeStyle;rounded=0;orthogonalLoop=1;jettySize=auto;html=1;entryX=0.5;entryY=1;entryDx=0;entryDy=0;" edge="1" parent="1" source="riJKTjfAlYIHCEY6nRW2-8" target="riJKTjfAlYIHCEY6nRW2-9">
          <mxGeometry relative="1" as="geometry" />
        </mxCell>
        <mxCell id="riJKTjfAlYIHCEY6nRW2-8" value="&lt;p style=&quot;margin: 4px 0px 0px; text-decoration: underline;&quot;&gt;&lt;span style=&quot;font-weight: normal;&quot;&gt;&lt;font style=&quot;font-size: 14px;&quot;&gt;4.3&lt;/font&gt;&lt;/span&gt;&lt;/p&gt;&lt;hr&gt;&lt;p style=&quot;margin: 0px; margin-left: 8px;&quot;&gt;&lt;font size=&quot;3&quot; style=&quot;font-weight: normal;&quot;&gt;Tarif&lt;/font&gt;&lt;/p&gt;&lt;p style=&quot;margin: 0px; margin-left: 8px;&quot;&gt;&lt;font size=&quot;3&quot; style=&quot;font-weight: normal;&quot;&gt;Puanlama&lt;/font&gt;&lt;/p&gt;&lt;p style=&quot;margin: 0px; margin-left: 8px;&quot;&gt;&lt;font size=&quot;3&quot; style=&quot;font-weight: normal;&quot;&gt;Analizi&amp;nbsp;&lt;/font&gt;&lt;/p&gt;" style="verticalAlign=middle;align=center;overflow=fill;fontSize=12;fontFamily=Helvetica;html=1;rounded=1;fontStyle=1;strokeWidth=3;fillColor=#dae8fc;strokeColor=#6c8ebf;" parent="1" vertex="1">
          <mxGeometry x="-1120" y="800" width="160" height="120" as="geometry" />
        </mxCell>
        <mxCell id="vjba6TYArSgT68D6Kl4n-18" style="edgeStyle=orthogonalEdgeStyle;rounded=0;orthogonalLoop=1;jettySize=auto;html=1;entryX=0;entryY=0.5;entryDx=0;entryDy=0;" edge="1" parent="1" source="riJKTjfAlYIHCEY6nRW2-9" target="riJKTjfAlYIHCEY6nRW2-2">
          <mxGeometry relative="1" as="geometry">
            <Array as="points">
              <mxPoint x="-1040" y="140" />
            </Array>
          </mxGeometry>
        </mxCell>
        <mxCell id="riJKTjfAlYIHCEY6nRW2-9" value="&lt;p style=&quot;margin: 0px; margin-top: 4px; text-align: center; text-decoration: underline;&quot;&gt;&lt;span style=&quot;font-weight: normal;&quot;&gt;&lt;font style=&quot;font-size: 14px;&quot;&gt;4.4&lt;/font&gt;&lt;/span&gt;&lt;/p&gt;&lt;hr&gt;&lt;p style=&quot;margin: 0px; margin-left: 8px;&quot;&gt;&lt;span style=&quot;font-weight: normal;&quot;&gt;&lt;font size=&quot;3&quot;&gt;Kişiselleştirilmiş&lt;/font&gt;&lt;/span&gt;&lt;/p&gt;&lt;p style=&quot;margin: 0px; margin-left: 8px;&quot;&gt;&lt;span style=&quot;font-weight: normal;&quot;&gt;&lt;font size=&quot;3&quot;&gt;Tariflerin&amp;nbsp;&lt;/font&gt;&lt;/span&gt;&lt;/p&gt;&lt;p style=&quot;margin: 0px; margin-left: 8px;&quot;&gt;&lt;span style=&quot;font-weight: normal;&quot;&gt;&lt;font size=&quot;3&quot;&gt;Hazırlanması&lt;/font&gt;&lt;/span&gt;&lt;/p&gt;" style="verticalAlign=middle;align=center;overflow=fill;fontSize=12;fontFamily=Helvetica;html=1;rounded=1;fontStyle=1;strokeWidth=3;fillColor=#dae8fc;strokeColor=#6c8ebf;" parent="1" vertex="1">
          <mxGeometry x="-1120" y="320" width="160" height="120" as="geometry" />
        </mxCell>
        <mxCell id="vjba6TYArSgT68D6Kl4n-3" value="&lt;font style=&quot;font-size: 16px;&quot;&gt;Kullanıcı Tariflerinin&lt;/font&gt;&lt;div&gt;&lt;div&gt;&lt;font size=&quot;3&quot; style=&quot;&quot;&gt;Eklenmesi&lt;/font&gt;&lt;/div&gt;&lt;/div&gt;" style="text;html=1;align=center;verticalAlign=middle;resizable=0;points=[];autosize=1;strokeColor=none;fillColor=none;" vertex="1" parent="1">
          <mxGeometry x="-610" y="240" width="160" height="50" as="geometry" />
        </mxCell>
        <mxCell id="vjba6TYArSgT68D6Kl4n-4" value="&lt;font style=&quot;font-size: 16px;&quot;&gt;Şef ve Yazar Tariflerinin&amp;nbsp;&lt;/font&gt;&lt;div&gt;&lt;font size=&quot;3&quot;&gt;Eklenmesi&lt;/font&gt;&lt;/div&gt;" style="text;html=1;align=center;verticalAlign=middle;resizable=0;points=[];autosize=1;strokeColor=none;fillColor=none;" vertex="1" parent="1">
          <mxGeometry x="-525" y="355" width="200" height="50" as="geometry" />
        </mxCell>
        <mxCell id="vjba6TYArSgT68D6Kl4n-6" value="&lt;font style=&quot;font-size: 16px;&quot;&gt;Tariflerin Kategorilere Göre&lt;/font&gt;&lt;div&gt;&lt;font size=&quot;3&quot;&gt;Sınıflandırılması&lt;/font&gt;&lt;/div&gt;" style="text;html=1;align=center;verticalAlign=middle;resizable=0;points=[];autosize=1;strokeColor=none;fillColor=none;" vertex="1" parent="1">
          <mxGeometry x="-600" y="480" width="210" height="50" as="geometry" />
        </mxCell>
        <mxCell id="vjba6TYArSgT68D6Kl4n-10" value="&lt;font style=&quot;font-size: 16px;&quot;&gt;Tarif Puan ve Yorumlanrın&lt;/font&gt;&lt;div&gt;&lt;font size=&quot;3&quot;&gt;Eklenmesi&lt;/font&gt;&lt;/div&gt;" style="text;html=1;align=center;verticalAlign=middle;resizable=0;points=[];autosize=1;strokeColor=none;fillColor=none;" vertex="1" parent="1">
          <mxGeometry x="-950" y="815" width="210" height="50" as="geometry" />
        </mxCell>
        <mxCell id="vjba6TYArSgT68D6Kl4n-14" value="&lt;font style=&quot;font-size: 16px;&quot;&gt;Oluşturulan Tarif&lt;/font&gt;&lt;div&gt;&lt;font size=&quot;3&quot;&gt;Modellerinin Eklenmesi&lt;/font&gt;&lt;/div&gt;" style="text;html=1;align=center;verticalAlign=middle;resizable=0;points=[];autosize=1;strokeColor=none;fillColor=none;" vertex="1" parent="1">
          <mxGeometry x="-615" y="740" width="190" height="50" as="geometry" />
        </mxCell>
        <mxCell id="vjba6TYArSgT68D6Kl4n-17" value="&lt;font style=&quot;font-size: 16px;&quot;&gt;Tarif Modellerinin&lt;/font&gt;&lt;div&gt;&lt;font size=&quot;3&quot;&gt;Düzenlenmesi&lt;/font&gt;&lt;/div&gt;" style="text;html=1;align=center;verticalAlign=middle;resizable=0;points=[];autosize=1;strokeColor=none;fillColor=none;" vertex="1" parent="1">
          <mxGeometry x="-1185" y="585" width="140" height="50" as="geometry" />
        </mxCell>
        <mxCell id="vjba6TYArSgT68D6Kl4n-19" value="&lt;font style=&quot;font-size: 16px;&quot;&gt;Kişiselleştirilmiş&lt;/font&gt;&lt;div&gt;&lt;font size=&quot;3&quot;&gt;Yemek Tarifleri&lt;/font&gt;&lt;/div&gt;" style="text;html=1;align=center;verticalAlign=middle;resizable=0;points=[];autosize=1;strokeColor=none;fillColor=none;" vertex="1" parent="1">
          <mxGeometry x="-935" y="68" width="140" height="50" as="geometry" />
        </mxCell>
      </root>
    </mxGraphModel>
  </diagram>
</mxfile>
